<svg t="1627369589670" class="icon" viewBox="0 0 1024 1024" version="1.1" xmlns="http://www.w3.org/2000/svg" p-id="1156" width="200" height="200"><path d="M512 57.677643C261.084506 57.677643 57.677643 261.084506 57.677643 512s203.406863 454.322357 454.322357 454.322357 454.322357-203.406863 454.322357-454.322357S762.915494 57.677643 512 57.677643z" fill="#89B7FF" p-id="1157"></path><path d="M512 369.243397c-11.946371-19.624596-29.055334-41.256374-49.988769-62.188922-53.088277-53.088277-110.669199-81.581033-128.614046-63.636187-17.944846 17.945733 10.541698 75.532867 63.629976 128.621144 12.460146 12.460146 25.167861 23.56531 37.55347 33.033317-71.661366 6.374711-121.964256 21.333629-121.964257 38.771799 0 20.628187 70.33478 37.783293 163.148756 41.377053-2.292021 18.369886-3.979757 38.635147-4.933657 60.178191-90.362232 4.001941-158.214211 20.909477-158.214211 41.16409 0 20.260825 67.852867 37.171023 158.214211 41.171189 4.001941 90.364894 20.910364 158.215099 41.171189 158.215099 20.253726 0 37.162149-67.850205 41.16409-158.214212 90.364007-4.001941 158.215099-20.912139 158.215099-41.172963 0-20.252839-67.850205-37.161262-158.215986-41.162316-0.953899-21.544818-2.641636-41.809192-4.933657-60.179965 92.818412-3.593761 163.149643-20.747979 163.149643-41.376166 0-17.43817-50.302003-32.397088-121.966031-38.771799 12.383834-9.468007 25.092437-20.574059 37.553469-33.035092 53.088277-53.088277 81.581033-110.670087 63.636188-128.614933-17.945733-17.944846-75.532867 10.541698-128.621144 63.629976-20.932548 20.932548-38.040624 42.564326-49.984333 62.190697z" fill="#FFFFFF" p-id="1158"></path></svg>