<svg t="1627369546691" class="icon" viewBox="0 0 1024 1024" version="1.1" xmlns="http://www.w3.org/2000/svg" p-id="1011" width="200" height="200"><path d="M705.56617 102.644908c-25.992208 0-47.517504 49.792666-51.302045 114.770524-46.556506-33.441497-88.538731-56.128333-120.221505-64.774656-5.875133-3.016097-13.278281-4.246849-21.994703-3.815597-8.773213-0.445449-16.219841 0.78974-22.120707 3.828908-60.223445 16.449664-157.633886 83.591764-252.945747 178.903625C105.034537 463.50375 27.080984 599.459716 62.851771 635.230503c21.303459 21.305234 78.139896 2.268062 148.500409-44.486323 0.724076 152.070211 13.22504 274.135626 229.134641 293.464735-28.400471-24.50235-46.937179-64.814586-46.937178-110.390572 0-74.688111 49.780243-135.231889 111.175875-135.231889 61.404506 0 111.184749 60.543778 111.184749 135.231889 0 45.575986-18.53582 85.888222-46.938953 110.389685 220.580603-19.74705 228.861338-146.716839 229.172797-303.362219 76.989893 53.880679 140.260492 77.129206 163.013879 54.380257 35.769012-35.770787-42.193414-171.719653-174.14034-303.667466a1247.374863 1247.374863 0 0 0-34.938454-33.615418c3.449123-18.096582 5.387979-38.491397 5.387979-60.066385 0-74.688111-23.239653-135.231889-51.901005-135.231889z" fill="#89B7FF" p-id="1012"></path></svg>