<svg t="1627369644766" class="icon" viewBox="0 0 1024 1024" version="1.1" xmlns="http://www.w3.org/2000/svg" p-id="1444" width="200" height="200"><path d="M269.691785 66.087931C152.597296 66.087931 57.677643 161.007584 57.677643 278.102073s94.919653 212.014142 212.014142 212.014142 212.014142-94.919653 212.014142-212.014142-94.919653-212.014142-212.014142-212.014142z m484.615543 424.028284c117.094489 0 212.015029-94.919653 212.015029-212.014142S871.401816 66.087931 754.307328 66.087931s-212.014142 94.919653-212.014143 212.014142 94.919653 212.014142 212.014143 212.014142zM269.691785 533.88201C152.597296 533.88201 57.677643 628.801664 57.677643 745.896153s94.919653 212.012367 212.014142 212.012367S481.705927 862.990641 481.705927 745.896153c0-117.094489-94.919653-212.014142-212.014142-212.014143z m484.615543 424.02651c117.094489 0 212.015029-94.917879 212.015029-212.012367 0-117.094489-94.920541-212.014142-212.015029-212.014143s-212.014142 94.919653-212.014143 212.014143 94.919653 212.012367 212.014143 212.012367z" fill="#88B6FF" p-id="1445"></path><path d="M355.952693 297.839362c-29.628562 0-53.649081 24.02052-53.649081 53.649082s24.02052 53.640208 53.649081 53.640208 53.640208-24.011646 53.640208-53.640208-24.011646-53.649081-53.640208-53.649082z m365.740146 53.649082c0 29.628562-24.011646 53.640208-53.640208 53.640208s-53.649081-24.011646-53.649082-53.640208 24.02052-53.649081 53.649082-53.649082 53.640208 24.02052 53.640208 53.649082zM355.952693 618.868686c-29.628562 0-53.649081 24.02052-53.649081 53.649082s24.02052 53.640208 53.649081 53.640208 53.640208-24.011646 53.640208-53.640208-24.011646-53.649081-53.640208-53.649082z" fill="#FFFFFF" p-id="1446"></path></svg>